<svg xmlns="http://www.w3.org/2000/svg" width="2048" height="2048" viewBox="0 0 2048 2048">
  <g transform="translate(0.000000,2048.000000) scale(0.100000,-0.100000)"
fill="#000000" stroke="none">
<path d="M10140 14333 c-515 -22 -968 -109 -1389 -265 -1360 -505 -2209 -1693
-2395 -3353 -47 -420 -49 -1011 -6 -1415 34 -305 92 -626 160 -871 466 -1701
1697 -2697 3495 -2829 179 -13 604 -13 771 0 614 48 1122 178 1573 404 923
464 1511 1284 1715 2396 62 341 76 565 76 1283 l0 577 -1830 0 -1830 0 0 -660
0 -660 968 0 967 0 -7 -126 c-9 -155 -22 -248 -55 -384 -151 -624 -627 -1089
-1288 -1260 -226 -59 -352 -73 -630 -74 -265 -1 -347 7 -543 50 -165 37 -310
87 -458 159 -578 280 -983 823 -1179 1580 -174 674 -176 1550 -5 2225 242 953
822 1537 1680 1690 174 31 558 39 740 16 487 -64 859 -240 1156 -548 183 -189
299 -374 409 -653 l51 -130 887 -3 c724 -2 887 0 887 11 0 24 -50 250 -80 364
-110 412 -315 817 -588 1159 -111 141 -357 386 -497 498 -474 379 -1046 630
-1705 750 -318 58 -714 84 -1050 69z M5242 14179 c-1248 -79 -1884 -566 -2051
-1571 -39 -230 -43 -334 -51 -1143 -7 -748 -9 -806 -28 -895 -117 -549 -445
-767 -1214 -806 l-138 -7 0 -811 0 -812 183 -12 c588 -38 912 -193 1072 -512
40 -80 70 -171 97 -292 20 -88 21 -137 28 -888 8 -804 12 -908 51 -1138 49
-297 150 -576 281 -779 276 -426 748 -685 1425 -782 231 -33 372 -42 771 -48
l382 -6 0 627 0 626 -211 0 c-249 0 -380 16 -521 64 -129 44 -198 86 -288 176
-61 60 -85 94 -122 170 -124 253 -137 393 -138 1495 0 774 -2 815 -53 995 -65
226 -155 381 -321 545 -56 56 -139 126 -186 157 -229 152 -518 255 -847 304
l-123 18 0 91 0 92 88 12 c423 58 757 190 1002 397 229 192 377 467 425 789
12 82 15 231 15 815 0 744 8 1007 35 1161 62 355 229 575 507 667 139 46 255
62 511 69 l227 6 0 619 0 618 -342 -1 c-189 -1 -398 -5 -466 -10z M14430
13572 l0 -619 228 -6 c304 -9 456 -35 598 -102 218 -104 349 -290 408 -575 35
-171 38 -258 46 -1140 7 -857 8 -888 29 -982 137 -617 616 -990 1414 -1099
l87 -12 0 -92 0 -91 -117 -18 c-627 -93 -1073 -366 -1273 -780 -57 -117 -84
-195 -113 -321 -19 -85 -20 -136 -27 -990 -8 -940 -11 -1002 -56 -1182 -74
-303 -236 -488 -499 -573 -140 -44 -273 -60 -514 -60 l-211 0 0 -626 0 -627
383 6 c210 3 436 11 502 17 723 65 1191 247 1521 592 262 275 411 628 480
1138 14 104 18 260 24 930 5 548 11 829 19 879 61 372 205 591 478 730 173 88
422 140 746 157 l137 7 0 812 0 812 -142 7 c-281 14 -479 50 -655 118 -327
126 -497 357 -564 769 -8 50 -14 335 -19 889 -8 846 -9 880 -55 1129 -134 727
-553 1186 -1267 1385 -354 99 -701 136 -1275 136 l-313 0 0 -618z"/>
</g>
</svg>
